<?xml version="1.0" encoding="UTF-8" standalone="no"?>
<svg
   xmlns:dc="http://purl.org/dc/elements/1.1/"
   xmlns:cc="http://creativecommons.org/ns#"
   xmlns:rdf="http://www.w3.org/1999/02/22-rdf-syntax-ns#"
   xmlns:svg="http://www.w3.org/2000/svg"
   xmlns="http://www.w3.org/2000/svg"
   xmlns:sodipodi="http://sodipodi.sourceforge.net/DTD/sodipodi-0.dtd"
   xmlns:inkscape="http://www.inkscape.org/namespaces/inkscape"
   inkscape:version="1.0 (4035a4fb49, 2020-05-01)"
   sodipodi:docname="coruja.svg"
   id="svg8"
   preserveAspectRatio="xMidYMid meet"
   viewBox="0 0 664.49359 350.89999"
   height="350.89999pt"
   width="664.49359pt"
   version="1.0">
  <defs
     id="defs12" />
  <sodipodi:namedview
     inkscape:current-layer="svg8"
     inkscape:window-maximized="1"
     inkscape:window-y="-8"
     inkscape:window-x="-8"
     inkscape:cy="223.86667"
     inkscape:cx="458.58738"
     inkscape:zoom="0.75585938"
     fit-margin-bottom="0"
     fit-margin-right="0"
     fit-margin-left="0"
     fit-margin-top="0"
     showgrid="false"
     id="namedview10"
     inkscape:window-height="1017"
     inkscape:window-width="1920"
     inkscape:pageshadow="2"
     inkscape:pageopacity="0"
     guidetolerance="10"
     gridtolerance="10"
     objecttolerance="10"
     borderopacity="1"
     bordercolor="#666666"
     pagecolor="#ffffff" />
  <metadata
     id="metadata2">
Created by potrace 1.15, written by Peter Selinger 2001-2017
<rdf:RDF>
  <cc:Work
     rdf:about="">
    <dc:format>image/svg+xml</dc:format>
    <dc:type
       rdf:resource="http://purl.org/dc/dcmitype/StillImage" />
    <dc:title></dc:title>
  </cc:Work>
</rdf:RDF>
</metadata>
  <g
     style="fill:#e6e6e6"
     id="g6"
     stroke="none"
     fill="#000000"
     transform="matrix(0.1,0,0,-0.1,-296.05947,421.9)">
    <path
       style="fill:#e6e6e6"
       id="path4"
       d="m 9255,4208 c -97,-24 -181,-56 -335,-130 -180,-87 -227,-105 -370,-148 -156,-47 -209,-66 -325,-115 -60,-26 -166,-66 -235,-90 -116,-40 -190,-69 -282,-109 -21,-9 -63,-16 -95,-16 -113,0 -287,-66 -405,-153 -77,-57 -120,-71 -145,-46 -20,20 -39,2 -83,-78 -24,-43 -63,-100 -87,-127 -24,-27 -55,-74 -70,-104 -18,-38 -38,-62 -67,-80 -22,-15 -82,-68 -131,-119 -74,-74 -94,-89 -108,-82 -20,12 -22,35 -3,42 18,7 30,57 17,70 -6,6 -31,1 -74,-17 l -63,-27 -145,10 c -110,8 -157,16 -199,33 -75,32 -77,33 -99,82 -36,82 -80,113 -316,225 -366,173 -436,198 -570,207 -123,7 -372,63 -405,90 -8,6 -55,21 -105,33 -49,12 -106,26 -125,31 -51,13 -286,62 -345,71 -27,4 -93,19 -145,33 -52,14 -140,35 -195,46 -55,11 -129,29 -165,39 -36,11 -97,25 -137,30 -91,14 -250,14 -258,1 -3,-6 -23,-10 -43,-10 -37,0 -142,-51 -142,-69 0,-11 25,-21 50,-21 10,0 28,-8 41,-18 l 22,-19 -39,-26 c -21,-15 -43,-27 -49,-27 -6,0 -25,-20 -42,-44 -41,-57 -32,-65 80,-68 l 86,-3 -38,-40 c -55,-57 -65,-80 -44,-100 23,-23 117,-14 207,20 53,20 66,22 66,10 0,-7 -10,-21 -21,-29 -30,-21 -109,-128 -109,-147 0,-18 20,-29 54,-29 46,0 141,32 174,58 81,64 112,76 112,43 0,-29 -11,-51 -24,-51 -7,0 -22,-10 -33,-22 -28,-31 -97,-168 -88,-176 13,-13 90,-4 148,18 58,22 59,22 80,2 39,-35 65,-42 161,-42 59,0 97,-4 102,-11 12,-20 87,-47 149,-54 48,-5 66,-13 92,-37 l 32,-31 92,6 c 60,5 96,3 105,-4 11,-9 120,-14 204,-10 14,1 55,-1 92,-5 l 66,-6 51,47 c 44,41 53,46 67,34 19,-15 81,-39 105,-39 8,0 30,11 49,25 41,30 50,31 50,6 0,-31 48,-33 98,-6 39,22 43,23 48,7 13,-42 21,-47 75,-48 70,0 99,-14 138,-62 29,-38 74,-60 109,-53 8,1 12,-11 12,-33 0,-30 4,-37 25,-42 14,-3 39,-4 56,0 25,5 36,-1 69,-33 40,-38 40,-40 50,-138 5,-55 14,-121 20,-146 9,-42 16,-61 55,-152 7,-16 23,-57 36,-90 13,-33 39,-78 59,-100 20,-22 53,-61 74,-87 41,-52 201,-165 282,-198 46,-20 51,-25 66,-73 37,-119 57,-146 157,-222 67,-51 123,-136 156,-236 27,-85 33,-177 13,-209 -10,-16 -9,-25 4,-48 11,-18 15,-38 11,-53 -3,-13 -7,-44 -7,-69 -1,-25 -5,-51 -9,-57 -9,-14 9,-53 23,-53 6,0 10,8 10,19 0,10 6,24 14,30 12,10 25,49 30,93 7,57 38,24 61,-64 10,-38 21,-68 25,-68 4,0 10,-9 13,-20 3,-11 10,-20 15,-20 6,0 8,10 5,21 -4,15 0,27 12,35 18,13 18,15 -4,45 -15,20 -23,46 -24,78 -1,27 -8,56 -16,65 -12,14 -12,23 0,59 7,23 22,54 33,70 15,21 17,30 8,39 -18,18 -15,46 6,51 13,4 12,5 -5,6 -20,1 -38,-16 -70,-65 -21,-34 -33,4 -33,111 -1,65 -6,114 -16,140 -9,22 -19,59 -23,82 -5,25 -24,63 -49,95 -47,62 -101,193 -84,210 7,7 32,6 82,-3 65,-11 75,-11 105,5 53,29 69,21 96,-52 6,-18 24,-48 39,-67 31,-39 47,-102 31,-118 -16,-16 -13,-41 8,-69 27,-34 81,-133 81,-149 0,-17 50,-89 62,-89 4,0 6,11 2,25 -4,15 -2,25 5,25 6,0 11,-13 11,-30 0,-40 18,-38 35,4 13,30 13,39 0,69 -14,33 -12,47 8,47 5,0 6,-7 3,-16 -4,-10 -1,-14 6,-11 25,8 11,78 -22,112 -16,17 -30,36 -30,41 0,15 -29,72 -40,79 -5,3 -14,22 -21,43 -7,20 -23,54 -37,75 -24,35 -24,38 -8,56 11,12 16,31 15,48 -4,31 33,93 55,93 7,0 21,9 31,20 21,23 40,26 31,5 -4,-12 -2,-13 15,-2 16,10 21,9 28,-2 5,-8 16,-11 25,-8 21,8 20,-2 -1,-25 -32,-35 7,-45 218,-54 l 126,-5 17,26 c 14,22 23,25 72,25 47,0 57,3 61,20 3,11 14,20 24,20 25,0 35,26 19,45 -7,9 -58,40 -114,70 -56,30 -112,62 -126,70 -14,8 -74,38 -135,66 -219,101 -213,97 -225,133 -13,41 -42,67 -100,91 -25,11 -55,27 -67,36 -13,9 -40,20 -60,24 -76,14 -91,39 -52,89 15,19 19,34 14,56 -6,27 -4,30 17,30 33,0 61,22 63,51 1,20 6,23 29,21 30,-4 86,39 86,65 0,7 8,17 19,22 10,6 28,29 39,52 14,28 33,47 56,58 19,9 46,32 59,51 23,34 25,35 80,32 52,-3 57,-1 70,23 7,15 31,36 52,48 24,14 41,32 45,47 4,16 19,31 43,43 23,11 37,24 37,36 0,12 11,23 28,29 15,5 46,25 69,43 23,19 62,49 87,68 26,18 46,40 46,47 0,8 9,14 20,14 10,0 25,7 32,15 49,58 83,85 114,91 39,7 124,-1 169,-18 21,-7 78,-7 188,-1 152,10 160,11 231,47 41,20 83,36 95,36 12,0 39,9 61,20 22,11 46,20 55,20 8,0 25,11 37,25 12,14 30,25 40,25 10,0 39,11 65,25 27,13 56,27 66,29 9,3 17,14 17,24 0,15 13,20 75,30 41,6 101,22 132,34 48,18 75,22 160,20 59,-1 104,2 108,7 3,6 -10,21 -29,33 -54,35 -46,47 28,41 35,-3 77,-3 92,1 l 27,7 -34,23 c -19,12 -58,33 -86,46 -29,14 -53,28 -53,32 0,5 45,8 99,8 55,0 103,4 106,10 7,11 -57,40 -90,40 -26,0 -50,24 -40,40 3,5 18,10 33,10 15,1 41,7 57,14 l 30,14 -45,21 c -36,16 -65,21 -150,21 -102,1 -104,2 -80,18 13,9 36,27 50,39 l 25,22 h -50 c -27,-1 -68,-5 -90,-11 z" />
  </g>
</svg>
